<svg width="14" height="26" viewBox="0 0 14 26" fill="none" xmlns="http://www.w3.org/2000/svg">
<path d="M13.1747 0.0052686L9.891 0C6.20193 0 3.81789 2.44595 3.81789 6.2317V9.10493H0.516323C0.231028 9.10493 0 9.33622 0 9.62151V13.7845C0 14.0698 0.231291 14.3008 0.516323 14.3008H3.81789V24.8054C3.81789 25.0906 4.04892 25.3217 4.33421 25.3217H8.64182C8.92711 25.3217 9.15814 25.0904 9.15814 24.8054V14.3008H13.0184C13.3037 14.3008 13.5348 14.0698 13.5348 13.7845L13.5363 9.62151C13.5363 9.48453 13.4818 9.35334 13.3851 9.2564C13.2885 9.15946 13.1567 9.10493 13.0198 9.10493H9.15814V6.66925C9.15814 5.49857 9.43711 4.90427 10.9621 4.90427L13.1741 4.90348C13.4592 4.90348 13.6902 4.67219 13.6902 4.38716V0.521591C13.6902 0.236823 13.4594 0.00579546 13.1747 0.0052686Z" fill="white"/>
</svg>
