<svg width="51" height="18" viewBox="0 0 51 18" fill="none" xmlns="http://www.w3.org/2000/svg">
<path d="M25.1129 17.9615C25.3072 17.9317 25.4883 17.8684 25.6693 17.8014C25.7533 17.7716 25.8416 17.7827 25.9211 17.8051C26.844 18.0509 27.661 17.8572 28.3984 17.3656C28.9549 16.9969 29.339 16.5128 29.6438 15.984C29.9264 15.4924 30.1339 14.9784 30.3724 14.4719C30.5402 14.1144 30.7257 13.7644 30.9332 13.4217C31.0657 13.202 31.2512 13.0083 31.4278 12.8147C32.0991 12.0624 32.8674 11.3995 33.7904 10.8632C34.731 10.3158 35.7555 9.95825 36.886 9.82418C37.4777 9.75342 38.0695 9.74225 38.6612 9.75342C39.0852 9.76087 39.5047 9.77949 39.9242 9.80928C40.304 9.83535 40.6882 9.86142 41.0635 9.92101C41.3373 9.9657 41.6023 10.0551 41.8673 10.1333C43.0905 10.4796 44.2784 10.9079 45.4398 11.3809C46.8927 11.973 48.2572 12.6881 49.5688 13.4776C49.7012 13.5595 49.8337 13.6042 49.9883 13.5372C50.1561 13.4664 50.2532 13.3472 50.2665 13.1871C50.2974 12.8817 50.1473 12.6322 49.9044 12.4162C49.6615 12.2002 49.3612 12.0475 49.0609 11.9023C48.0099 11.3995 46.9457 10.9191 45.8417 10.5094C44.6802 10.0774 43.4879 9.70873 42.2735 9.39218C41.7657 9.25811 41.2755 9.09052 40.7633 8.97134C40.3746 8.88196 40.0258 8.72555 39.6548 8.59893C38.7805 8.30099 37.8752 8.08872 36.9478 7.9323C36.6255 7.87644 36.2943 7.8392 35.9719 7.78333C35.7158 7.73864 35.464 7.65671 35.2079 7.5934C34.1172 7.30664 33.0352 6.98636 31.9931 6.58787C31.026 6.21918 30.0986 5.78718 29.2419 5.25462C29.0785 5.15407 28.9504 5.01627 28.8091 4.89338C28.2483 4.40923 27.7051 3.9102 27.1001 3.46329C26.9544 3.35529 26.8043 3.24729 26.6453 3.15046C26.3317 2.95681 26.0624 2.71846 25.7577 2.51736C25.687 2.47267 25.6208 2.42053 25.5501 2.37956C25.1924 2.17846 24.8921 1.91404 24.5433 1.70176C24.1856 1.48576 23.8058 1.31445 23.373 1.23624C22.9226 1.15431 22.4854 1.2139 22.0659 1.35914C21.8318 1.44107 21.5978 1.53045 21.3682 1.61983C20.9531 1.77997 20.5556 1.7539 20.167 1.56397C19.8976 1.43362 19.6283 1.29955 19.3545 1.17293C19.0453 1.02769 18.7141 0.930858 18.3564 0.901065C18.3476 0.901065 18.3344 0.897341 18.3344 0.889893H17.9281C17.9237 0.904789 17.9104 0.901065 17.8972 0.904789C17.0846 0.986721 16.4355 1.31817 15.9586 1.87307C15.3756 2.55087 15.2343 3.31805 15.4021 4.12992C15.5479 4.83007 15.9365 5.42966 16.4841 5.96221C16.6342 6.10746 16.802 6.24153 16.961 6.37932C17.0758 6.3756 17.195 6.36815 17.3098 6.36815C17.9678 6.3607 18.6258 6.36442 19.2838 6.39422C19.4604 6.40167 19.6371 6.40911 19.8137 6.42401C20.0919 6.44263 20.3701 6.4687 20.6483 6.48732C20.6439 6.47987 20.6395 6.47243 20.6307 6.46498C20.3701 6.21546 20.1493 5.94359 19.9948 5.63449C19.8358 5.32166 19.7254 5.00138 19.7387 4.65503C19.7519 4.38689 19.8579 4.14482 20.0875 3.95861C20.4717 3.64578 20.9398 3.56012 21.4565 3.63088C21.8098 3.6793 22.1365 3.80592 22.4589 3.93626C22.9005 4.1113 23.32 4.29751 23.7307 4.50606C24.1237 4.70717 24.5168 4.90827 24.8789 5.1429C25.1483 5.31421 25.3823 5.52276 25.6296 5.71642C25.8239 5.86911 26.0182 6.0218 26.2081 6.17822C26.2302 6.19684 26.2743 6.20056 26.2699 6.24153C26.2964 6.2378 26.3097 6.2527 26.3185 6.27132C26.3671 6.30484 26.4157 6.33463 26.4642 6.37187C27.0913 6.85601 27.7316 7.32526 28.4294 7.73492C29.0785 8.11479 29.763 8.43879 30.5225 8.64734C31.0569 8.79258 31.6045 8.87452 32.1653 8.90803C32.5848 8.93038 33.0043 8.93038 33.4239 8.93038C33.7904 8.93038 34.1569 8.91548 34.5234 8.98252C34.4219 9.01976 34.3203 9.04955 34.2276 9.08679C33.6447 9.29535 33.1368 9.60445 32.6422 9.93218C32.6378 9.95453 32.6246 9.9657 32.5936 9.9657C32.5936 9.97687 32.5892 9.98059 32.576 9.98059C32.5804 10.0067 32.5583 10.0141 32.5407 10.029C32.2801 10.2189 32.0505 10.4387 31.8208 10.6547C31.631 10.8521 31.4455 11.0494 31.2733 11.258C31.1408 11.4218 31.0215 11.5969 30.8714 11.7533C30.4519 12.1928 30.103 12.6694 29.8027 13.1722C29.5996 13.5074 29.4097 13.8463 29.2154 14.1852C28.8224 14.8593 28.4249 15.5296 27.8332 16.1031C27.6654 16.267 27.4711 16.3973 27.2238 16.4644C27.1752 16.4755 27.1355 16.4942 27.0957 16.5202C26.8396 16.6953 26.5349 16.7325 26.2258 16.7027C25.9299 16.6729 25.6914 16.5277 25.5015 16.334C25.453 16.2856 25.4176 16.226 25.3602 16.1888C25.1836 16.0696 25.0732 15.9206 25.0025 15.7419C24.8656 15.3881 24.8877 15.0343 24.9849 14.6805C25.082 14.323 25.2763 13.999 25.5148 13.6899C25.8283 13.2877 26.2125 12.9301 26.6011 12.5801C26.8573 12.3492 27.1266 12.1257 27.3872 11.9023C27.4093 11.8836 27.4269 11.8613 27.4622 11.8539C27.4932 11.8278 27.5241 11.8017 27.5506 11.7719C27.7714 11.5224 28.0363 11.3064 28.3057 11.0941C28.3719 11.042 28.4294 10.9675 28.5265 10.9489C28.5221 10.9265 28.5353 10.9154 28.5618 10.9116H28.5574C28.5618 10.9005 28.5662 10.8967 28.5795 10.8967C28.7517 10.7254 28.9328 10.5616 29.1359 10.4163C29.1889 10.3791 29.2375 10.3418 29.2772 10.2934C29.4627 10.0737 29.6791 9.87632 29.922 9.70128C29.9396 9.69011 29.9661 9.68266 29.9661 9.66032C29.7718 9.63797 29.5775 9.6417 29.3832 9.63425C29.2419 9.63052 29.1006 9.63797 28.9637 9.6417C28.8356 9.64542 28.6987 9.63797 28.5751 9.66032C27.0957 9.90984 25.6782 10.3232 24.3269 10.8893C23.8764 11.0792 23.4393 11.2803 22.9888 11.4665C22.1586 11.8092 21.3328 12.163 20.507 12.513C20.5026 12.5279 20.4894 12.5354 20.4761 12.5317C20.4717 12.554 20.4496 12.5614 20.432 12.5726C20.273 12.6657 20.114 12.7588 19.9595 12.8519C19.4119 13.1759 18.8819 13.5186 18.3609 13.8686C17.8309 14.2187 17.3143 14.5837 16.7843 14.93C16.2942 15.254 15.7775 15.5445 15.1858 15.7233C14.7751 15.8499 14.3511 15.8946 13.9228 15.8387C13.3752 15.7642 12.8983 15.5594 12.5494 15.1833C12.1652 14.7699 12.046 14.3081 12.2359 13.8053C12.386 13.3994 12.7128 13.1015 13.0882 12.837C13.1897 12.7626 13.3178 12.7141 13.4061 12.6248C13.5695 12.4572 13.7506 12.3082 13.9493 12.1741C14.4571 11.8278 15.0356 11.6043 15.6671 11.4628C16.2721 11.325 16.8947 11.2729 17.5174 11.217C17.8133 11.191 18.1136 11.1723 18.4094 11.15C18.6214 10.9861 18.8599 10.8632 19.1204 10.7627C19.6459 10.5653 20.1979 10.4461 20.7588 10.3418C21.2931 10.245 21.8363 10.1668 22.3662 10.0588C23.0816 9.90984 23.7837 9.7199 24.4859 9.52997C24.6051 9.49645 24.7332 9.47783 24.8436 9.41824C25.2101 9.22831 25.5634 9.02348 25.9034 8.80003C25.9255 8.78514 25.9564 8.77769 25.9564 8.74789C25.9299 8.74045 25.9034 8.73672 25.8813 8.733C24.7155 8.52444 23.5408 8.34568 22.3485 8.25258C21.8318 8.21161 21.3108 8.18554 20.7897 8.18182C20.1714 8.17437 19.5532 8.19672 18.9349 8.24141C18.5596 8.26748 18.1842 8.30472 17.8089 8.34196C17.3717 8.38293 16.9345 8.43134 16.4973 8.44251C16.144 8.44996 15.7907 8.46486 15.4375 8.47603C15.1548 8.48348 14.8766 8.5021 14.594 8.49093C14.1568 8.47231 13.7285 8.41272 13.3045 8.31961C13.0396 8.26003 12.779 8.18182 12.5229 8.09989C12.4346 8.10734 12.3507 8.08872 12.2668 8.08127C12.0283 8.06265 11.7987 8.01051 11.5646 7.96954C11.5558 7.97327 11.547 7.97699 11.5381 7.97699C11.3703 7.96209 11.2025 7.94347 11.0347 7.9323C10.7609 7.91368 10.4915 7.88016 10.2266 7.84664C9.85122 7.79823 9.47586 7.73864 9.10492 7.66788C8.38511 7.53754 7.68738 7.3625 7.02056 7.09809C6.30958 6.81877 5.67809 6.44636 5.15701 5.94732C4.92296 5.72014 4.72865 5.47435 4.59176 5.19503C4.46811 4.94924 4.44161 4.69227 4.53876 4.43903C4.68008 4.06289 4.99361 3.82826 5.42197 3.69419C5.81057 3.5713 6.20802 3.54523 6.6187 3.57502C6.92341 3.59737 7.22811 3.63088 7.52398 3.69419C8.15106 3.82082 8.73839 4.03309 9.31247 4.26772C9.7629 4.4502 10.2045 4.64758 10.6505 4.84124C11.1009 5.0349 11.5514 5.22855 12.0106 5.40359C12.6907 5.66428 13.4017 5.85794 14.1215 6.0218C14.594 6.12608 15.0709 6.21173 15.5479 6.28249C15.7333 6.31229 15.9144 6.34208 16.0999 6.35325C16.0469 6.32718 15.9895 6.30111 15.9365 6.27877C14.7088 5.74249 13.5562 5.10938 12.4964 4.36082C11.8561 3.90647 11.2334 3.43723 10.571 3.0015C9.98812 2.61791 9.3787 2.26411 8.69864 2.00714C7.7492 1.6459 6.76443 1.47831 5.72667 1.61983C5.12609 1.70176 4.58293 1.89169 4.106 2.21197C3.97352 2.30135 3.84546 2.39446 3.69531 2.46522C3.60699 2.50991 3.51426 2.5248 3.41269 2.51736C3.33761 2.51363 3.26254 2.49873 3.19189 2.48011C2.48532 2.30135 1.84501 2.42053 1.26651 2.80039C0.807243 3.10577 0.489288 3.50054 0.255241 3.94744C0.0565224 4.3273 -0.0538788 4.72206 0.0256081 5.13917C0.0962639 5.52649 0.32148 5.83559 0.75425 6.01063C0.829323 6.04042 0.904392 6.07766 0.979465 6.1149C1.15611 6.19684 1.26651 6.32346 1.32391 6.4836C1.35041 6.56181 1.37249 6.64374 1.38574 6.72939C1.42107 6.97891 1.43431 7.22843 1.47847 7.47795C1.57563 8.04775 1.84942 8.53934 2.33518 8.94528C3.07707 9.56349 3.98676 9.86887 5.01128 9.94335C5.63393 9.98804 6.25659 9.94335 6.87041 9.86142C7.64763 9.76087 8.41602 9.61935 9.18882 9.5039C10.0985 9.36983 11.0082 9.25066 11.9223 9.16873C12.6995 9.09797 13.4812 9.04583 14.2672 9.01231C15.0754 8.97507 15.8791 8.95645 16.6872 8.95645C17.566 8.95272 18.4492 8.95272 19.328 8.96762C19.7696 8.97507 20.2067 8.98252 20.6483 8.98997C21.377 9.00114 22.1012 9.00859 22.8299 9.02348C23.2891 9.03093 23.7484 9.01231 24.2032 9.06072C24.349 9.07562 24.4947 9.08679 24.6404 9.10169C24.6139 9.12031 24.583 9.13148 24.5521 9.13893C23.5938 9.4108 22.6179 9.63797 21.6243 9.81301C21.3726 9.8577 21.1209 9.91728 20.8647 9.92846C20.5335 9.94708 20.2023 9.94708 19.8711 9.94335C19.1999 9.93218 18.5331 9.90611 17.8663 9.88749C17.2966 9.87259 16.7269 9.86887 16.1573 9.89121C15.4949 9.92101 14.8325 9.98432 14.1922 10.1333C13.4635 10.2971 12.7746 10.5429 12.174 10.9377C11.4321 11.4256 10.9817 12.0438 10.9729 12.8594C10.9685 13.2243 10.8227 13.5409 10.5092 13.7979C10.3723 13.9096 10.2398 14.0325 10.1338 14.1666C9.79381 14.606 9.70107 15.0864 9.80264 15.5966C9.97045 16.4197 10.8581 17.0565 11.8473 17.0826C12.1166 17.09 12.3772 17.0565 12.6377 17.023C12.8762 16.9895 13.0926 17.023 13.2825 17.1608C13.3664 17.2204 13.4503 17.2762 13.5342 17.3358C13.7329 17.4736 13.9316 17.6077 14.1612 17.7008C14.6558 17.8945 15.1681 17.9019 15.6892 17.8014C16.303 17.6785 16.8108 17.4029 17.2613 17.0416C17.6411 16.74 17.9678 16.3973 18.2902 16.051C19.3147 14.9524 20.4055 13.9059 21.6243 12.9562C22.0394 12.6322 22.4545 12.3119 22.9314 12.0512C24.084 11.4293 25.2984 10.9265 26.5967 10.5541C26.6232 10.5467 26.6453 10.528 26.6762 10.5429C26.6674 10.569 26.6409 10.5765 26.6232 10.5914C26.4377 10.7217 26.2523 10.8558 26.08 11.001C25.2013 11.7272 24.5035 12.5689 23.9648 13.4962C23.4923 14.3155 23.2185 15.1795 23.245 16.0994C23.2582 16.4979 23.3509 16.8815 23.5806 17.2316C23.8102 17.5854 24.1414 17.8386 24.6095 17.9466C24.6846 17.9652 24.7641 17.9764 24.8436 17.9913H25.1129V17.9615ZM26.6629 10.502L26.6674 10.4983L26.6718 10.502C26.6674 10.502 26.6674 10.5057 26.6629 10.5057C26.6629 10.5057 26.6629 10.5057 26.6629 10.502Z" fill="#FF9E18"/>
<path d="M20.4988 12.4944C21.3246 12.1443 22.1504 11.7905 22.9806 11.4479C23.431 11.2617 23.8726 11.0606 24.3186 10.8707C25.6699 10.3046 27.0875 9.89495 28.5668 9.6417C28.6949 9.61936 28.8274 9.62681 28.9555 9.62308C29.0968 9.61936 29.2381 9.61191 29.375 9.61563C29.5693 9.62308 29.7636 9.61936 29.9579 9.6417C29.9535 9.66405 29.927 9.6715 29.9137 9.68267C29.6708 9.8577 29.4545 10.0551 29.269 10.2748C29.2292 10.3232 29.1807 10.3605 29.1277 10.3977C28.9245 10.5429 28.7435 10.7068 28.5713 10.8781C28.5668 10.8856 28.5624 10.893 28.5492 10.893C28.5492 10.9116 28.5359 10.9265 28.5138 10.9303C28.4344 11.0457 28.3328 11.1537 28.2577 11.2729C28.0546 11.5932 27.9133 11.9283 27.9486 12.3008C27.9795 12.6173 28.2268 12.878 28.5889 12.9525C28.8451 13.0046 29.0835 12.9413 29.3087 12.8445C29.4942 12.7626 29.6576 12.6508 29.821 12.5465C29.927 12.4609 30.033 12.379 30.1345 12.2933C30.4834 11.9954 30.7837 11.6602 31.084 11.3287C31.2739 11.1239 31.4549 10.9116 31.6625 10.718C31.6713 10.7031 31.6801 10.6882 31.6978 10.6807C31.7022 10.677 31.7066 10.6696 31.711 10.6658C31.7199 10.6584 31.7287 10.6472 31.7375 10.6398C31.8788 10.4871 32.0378 10.3493 32.2056 10.2152C32.316 10.1258 32.4264 10.0365 32.5545 9.9657C32.5545 9.95826 32.5589 9.95081 32.5722 9.95081C32.581 9.93219 32.6031 9.92474 32.6207 9.91729C33.1153 9.58956 33.6232 9.28046 34.2061 9.07191C34.3032 9.03839 34.4004 9.00487 34.502 8.96763C34.131 8.90059 33.7645 8.91549 33.4024 8.91549C32.9828 8.91549 32.5633 8.91921 32.1438 8.89315C31.583 8.86335 31.0354 8.7777 30.5011 8.63245C29.7459 8.42763 29.057 8.0999 28.4079 7.72003C27.7101 7.31038 27.0698 6.84113 26.4427 6.35699C26.3986 6.31975 26.3456 6.28996 26.297 6.25644C26.2794 6.24899 26.2573 6.24527 26.2484 6.22664C26.1513 6.18568 26.0585 6.13354 25.9658 6.0814C25.9481 6.07768 25.9305 6.07023 25.9172 6.05533C25.8907 6.04416 25.8598 6.03299 25.8333 6.01809C25.6479 5.92499 25.458 5.83933 25.2593 5.76857C24.981 5.6643 24.6984 5.57864 24.3805 5.60099C24.0228 5.63078 23.7357 5.82816 23.6518 6.12237C23.5944 6.33092 23.6386 6.53203 23.7446 6.72196C23.7799 6.78155 23.8196 6.84113 23.855 6.90444C23.7799 6.91189 23.7137 6.89699 23.6474 6.89699C23.2941 6.90072 22.9409 6.87837 22.5876 6.88955C22.2122 6.90072 21.8324 6.90072 21.4571 6.91934C21.0376 6.93796 20.6224 6.95658 20.2029 6.9752C19.6333 6.99755 19.0592 7.02362 18.4895 7.03851C18.0391 7.04968 17.5887 7.04968 17.1382 7.03479C16.6083 7.01617 16.0828 6.98265 15.5617 6.91189C14.9126 6.82623 14.2811 6.68472 13.6717 6.47989C13.3581 6.37561 13.0578 6.24154 12.7134 6.2192C12.3115 6.1894 11.9494 6.26761 11.658 6.52085C11.3223 6.81879 11.2826 7.221 11.5564 7.54127C11.6845 7.68652 11.8478 7.79824 12.0333 7.8839C12.179 7.94721 12.3248 8.00679 12.4705 8.06638C12.7266 8.14831 12.9872 8.22652 13.2521 8.28611C13.6761 8.37921 14.1088 8.44252 14.5416 8.45742C14.8198 8.46859 15.1024 8.44997 15.3851 8.4388C15.7383 8.42762 16.0916 8.41645 16.4449 8.40528C16.8865 8.39411 17.3193 8.34942 17.7565 8.30473C18.1318 8.26749 18.5072 8.23397 18.8825 8.20418C19.5008 8.15949 20.119 8.14086 20.7373 8.14459C21.2584 8.14831 21.775 8.17438 22.2961 8.21535C23.484 8.30845 24.6587 8.48349 25.8289 8.69577C25.8554 8.69949 25.8775 8.70694 25.904 8.71066C25.8996 8.74045 25.8687 8.7479 25.851 8.7628C25.511 8.98625 25.1577 9.19108 24.7912 9.38101C24.6808 9.43687 24.5527 9.45922 24.4335 9.49274C23.7313 9.68267 23.0292 9.87632 22.3138 10.0216C21.7794 10.1296 21.2407 10.2078 20.7064 10.3046C20.1455 10.4052 19.5935 10.5281 19.0724 10.7254C18.8119 10.8223 18.569 10.9489 18.3615 11.1127C18.3173 11.15 18.2775 11.191 18.2334 11.2282C18.2246 11.2394 18.2113 11.2543 18.2025 11.2654C17.8889 11.6192 17.8845 12.0475 18.2113 12.3901C18.5337 12.7253 18.9664 12.8259 19.461 12.7774C19.5582 12.7663 19.6553 12.7477 19.7525 12.7328C19.8806 12.6918 20.0086 12.6471 20.1367 12.6061C20.2383 12.5726 20.3354 12.5205 20.4414 12.4907C20.4679 12.5019 20.4856 12.5019 20.4988 12.4944Z" fill="#12100B"/>
<path d="M16.5107 6.39415C16.3694 6.37553 16.2325 6.35691 16.0912 6.34201C16.0824 6.33829 16.078 6.33829 16.0691 6.33456C15.8837 6.32339 15.6982 6.2936 15.5171 6.26753C15.0358 6.19677 14.5589 6.11111 14.0864 6.00684C13.3665 5.8467 12.6556 5.65304 11.9755 5.38863C11.5162 5.21359 11.0658 5.01993 10.6154 4.82628C10.1694 4.63262 9.72776 4.43524 9.27733 4.25276C8.69884 4.01813 8.11151 3.80586 7.48885 3.67924C7.19298 3.61965 6.88828 3.58241 6.58357 3.56006C6.17288 3.53027 5.77544 3.56006 5.38683 3.67924C4.95848 3.81331 4.64494 4.04793 4.50363 4.42407C4.40648 4.68103 4.43739 4.93428 4.55662 5.18007C4.69352 5.45938 4.88782 5.70518 5.12187 5.93235C5.64296 6.43139 6.27445 6.80381 6.98542 7.08312C7.65224 7.34753 8.35439 7.52257 9.06978 7.65292C9.44072 7.71995 9.81608 7.78326 10.1914 7.83168C10.4608 7.86519 10.7302 7.89871 10.9996 7.91733C11.1674 7.9285 11.3352 7.94712 11.503 7.96202C11.5118 7.96202 11.5207 7.9583 11.5295 7.95457C11.4942 7.9285 11.45 7.92478 11.4103 7.91361C11.004 7.80188 10.633 7.63802 10.346 7.35871C10.0413 7.0645 9.88674 6.7256 9.95298 6.33084C10.0281 5.88021 10.4741 5.61952 10.9863 5.70518C11.2292 5.74614 11.4544 5.83552 11.6841 5.91001C12.0108 6.01428 12.3376 6.10739 12.6732 6.18187C13.0133 6.25635 13.3577 6.32339 13.7066 6.36063C14.0113 6.39415 14.3116 6.43139 14.6163 6.43511C15.0755 6.43884 15.5304 6.44256 15.9897 6.42394C16.1442 6.41649 16.2988 6.4016 16.4578 6.40905C16.4842 6.40905 16.5019 6.40905 16.5107 6.39415Z" fill="#FF4713"/>
<path d="M20.4678 12.5131C20.3618 12.5429 20.2646 12.5913 20.1631 12.6286C20.035 12.6695 19.9069 12.7142 19.7788 12.7552C19.6773 12.826 19.5536 12.8707 19.4388 12.9265C18.9618 13.1612 18.4804 13.3958 18.0035 13.6267C17.6678 13.7906 17.3189 13.9284 16.9347 13.9992C16.7183 14.0364 16.5019 14.0476 16.29 13.9992C15.8351 13.8986 15.5039 13.5448 15.4641 13.1574C15.4332 12.8707 15.5303 12.6099 15.7158 12.3716C15.9499 12.0736 16.2679 11.8576 16.6388 11.69C16.9524 11.5522 17.2792 11.4516 17.6193 11.3697C17.8312 11.3213 18.0432 11.2729 18.264 11.2468C18.3082 11.2096 18.3479 11.1686 18.3921 11.1313C18.0962 11.1537 17.7959 11.1686 17.5 11.1984C16.8773 11.2543 16.259 11.3101 15.6496 11.4442C15.0225 11.5857 14.4395 11.8092 13.9316 12.1556C13.7329 12.2896 13.5474 12.4386 13.3884 12.6062C13.3045 12.6956 13.1765 12.744 13.0705 12.8185C12.6951 13.0829 12.3683 13.3809 12.2181 13.7869C12.0326 14.2934 12.1519 14.7552 12.5317 15.1649C12.8806 15.5411 13.3531 15.7459 13.9051 15.8204C14.3335 15.88 14.7575 15.8316 15.1726 15.7049C15.7644 15.5224 16.2811 15.2319 16.7713 14.9116C17.3013 14.5615 17.8224 14.2003 18.3479 13.8502C18.8735 13.5001 19.4034 13.1574 19.9466 12.8334C20.1056 12.7403 20.2602 12.6472 20.4192 12.5541C20.4413 12.5429 20.4589 12.5355 20.4678 12.5131Z" fill="#FF4713"/>
<path d="M31.7546 10.6436C31.7457 10.651 31.7369 10.6622 31.7281 10.6696C31.7237 10.6733 31.7192 10.6808 31.7148 10.6845C31.7148 10.7031 31.7016 10.718 31.6795 10.7218C31.4719 10.9154 31.2909 11.1277 31.101 11.3326C30.7962 11.664 30.5003 11.9992 30.1515 12.2972C30.0499 12.3829 29.9395 12.4685 29.8379 12.5505C29.8158 12.6212 29.754 12.6696 29.701 12.7218C29.4846 12.9601 29.2594 13.1948 28.99 13.3996C28.7957 13.5449 28.5925 13.6752 28.354 13.7609C28.1111 13.8466 27.8638 13.8913 27.6033 13.8466C27.3294 13.7981 27.1263 13.6715 27.0203 13.448C26.9408 13.2767 26.9364 13.1017 26.9585 12.9192C26.9982 12.6287 27.113 12.3605 27.2764 12.1073C27.3339 12.0179 27.4134 11.9397 27.4575 11.8428C27.4222 11.8465 27.4045 11.8726 27.3824 11.8875C27.1175 12.1147 26.8525 12.3344 26.5963 12.5654C26.2077 12.9155 25.8235 13.2693 25.5099 13.6752C25.2714 13.9844 25.0815 14.3084 24.98 14.6659C24.8828 15.0198 24.8607 15.3773 24.9976 15.7274C25.0683 15.9024 25.1787 16.0551 25.3554 16.1743C25.4128 16.2116 25.4525 16.2712 25.4967 16.3196C25.6866 16.5132 25.9251 16.6585 26.2209 16.6883C26.5301 16.7218 26.8348 16.6808 27.091 16.5058C27.1307 16.4797 27.1705 16.4611 27.219 16.4499C27.4663 16.3829 27.6607 16.2488 27.8285 16.0887C28.4203 15.5151 28.8177 14.8447 29.2108 14.1706C29.4051 13.8317 29.595 13.4927 29.7982 13.1575C30.0985 12.6547 30.4474 12.178 30.8669 11.7385C31.0126 11.5821 31.1319 11.4108 31.2688 11.2469C31.441 11.0383 31.6265 10.8409 31.8164 10.6436H31.7546Z" fill="#FF4713"/>
<path d="M16.5098 6.39428C16.4966 6.40918 16.4789 6.4129 16.4613 6.40918C16.3067 6.40173 16.1477 6.41663 15.9932 6.42407C15.5339 6.44269 15.0791 6.43897 14.6198 6.43525C14.3151 6.43152 14.0104 6.398 13.7101 6.36076C13.3612 6.3198 13.0168 6.25649 12.6768 6.182C12.3411 6.10752 12.0099 6.01069 11.6876 5.91014C11.4579 5.83566 11.2327 5.74628 10.9898 5.70531C10.4776 5.61965 10.0316 5.87662 9.9565 6.33097C9.89026 6.72573 10.0492 7.06091 10.3495 7.35884C10.6366 7.63815 11.0075 7.80201 11.4138 7.91374C11.4535 7.92491 11.5021 7.92864 11.533 7.95471C11.7671 7.99567 11.9967 8.04409 12.2352 8.06643C12.3191 8.07388 12.403 8.0925 12.4913 8.08505C12.3456 8.02546 12.1954 7.96588 12.0541 7.90257C11.8642 7.82064 11.7008 7.70891 11.5772 7.55994C11.299 7.23594 11.3387 6.83373 11.6743 6.53952C11.9614 6.28628 12.3235 6.20807 12.7297 6.23787C13.0742 6.26021 13.3745 6.39428 13.688 6.49856C14.2974 6.70339 14.9289 6.8449 15.5781 6.93056C16.0992 7.00132 16.6247 7.03484 17.1546 7.05346C17.605 7.06835 18.0554 7.06835 18.5059 7.05718C19.08 7.04229 19.6496 7.01622 20.2193 6.99387C20.6388 6.97897 21.0539 6.95663 21.4734 6.93801C21.8488 6.92311 22.2286 6.91939 22.6039 6.90821C22.9572 6.89704 23.3105 6.91939 23.6638 6.91566C23.73 6.91566 23.7962 6.93056 23.8713 6.92311C23.8316 6.8598 23.7918 6.80021 23.7609 6.74063C23.6549 6.5507 23.6108 6.34959 23.6682 6.14104C23.7521 5.84683 24.0347 5.64945 24.3968 5.61965C24.7148 5.59359 24.9974 5.68296 25.2756 5.78724C25.4743 5.86172 25.6642 5.94738 25.8497 6.03676C25.8762 6.05166 25.9071 6.05911 25.9336 6.07028C25.9336 6.06283 25.9336 6.05166 25.9248 6.04793C25.7746 5.93993 25.6245 5.83193 25.4699 5.72765C25.1343 5.50793 24.7589 5.35524 24.3482 5.25096C24.1274 5.1951 23.9155 5.11317 23.7212 5.00517C23.5799 4.92324 23.443 4.83758 23.2884 4.77054C23.0058 4.64765 22.7143 4.60296 22.4052 4.69979C22.0608 4.80406 21.84 5.0722 21.8355 5.38131C21.8311 5.64572 21.9415 5.88779 22.1049 6.11124C22.2639 6.33097 22.4759 6.51345 22.6967 6.69221C22.7187 6.71083 22.7497 6.72573 22.7629 6.76297C22.6746 6.74808 22.5863 6.73318 22.5024 6.72201C22.2153 6.68477 21.9327 6.6438 21.6457 6.61028C21.4293 6.58421 21.2173 6.56187 21.0009 6.53952C20.8817 6.52835 20.7669 6.51345 20.6476 6.50228C20.3694 6.47994 20.0912 6.45759 19.813 6.43897C19.6364 6.4278 19.4597 6.41663 19.2831 6.40918C18.6251 6.37938 17.9671 6.37566 17.3091 6.38311C17.1943 6.38311 17.0751 6.39056 16.9603 6.39428C16.8146 6.39056 16.6644 6.40545 16.5098 6.39428Z" fill="#E1251B"/>
<path d="M20.657 6.49115C20.7763 6.50233 20.8911 6.51722 21.0103 6.5284C21.2267 6.55074 21.4431 6.57309 21.6551 6.59916C21.9422 6.6364 22.2293 6.67365 22.5119 6.71089C22.5958 6.72207 22.6841 6.73696 22.7725 6.75186C22.7592 6.71462 22.7283 6.69972 22.7062 6.6811C22.4854 6.50233 22.2734 6.32355 22.1144 6.10009C21.951 5.87662 21.8406 5.63453 21.845 5.3701C21.8494 5.0647 22.0703 4.79654 22.4147 4.69225C22.7239 4.59914 23.0154 4.64384 23.298 4.76302C23.4526 4.83006 23.5851 4.91944 23.7308 4.99766C23.9251 5.10567 24.1371 5.1876 24.3579 5.24347C24.7642 5.34775 25.144 5.50045 25.4797 5.7202C25.6342 5.82076 25.7844 5.93249 25.9345 6.0405C25.939 6.04422 25.939 6.05539 25.9434 6.06284C25.9699 6.05912 25.9831 6.07029 25.992 6.08891C26.0847 6.14106 26.173 6.1932 26.2746 6.23417C26.279 6.19692 26.2348 6.18947 26.2128 6.17085C26.0184 6.01815 25.8285 5.86172 25.6342 5.70902C25.3869 5.51535 25.1484 5.30678 24.8835 5.13546C24.5213 4.90082 24.1283 4.6997 23.7352 4.49858C23.3289 4.29002 22.9049 4.10007 22.4766 3.92875C22.1542 3.80212 21.8318 3.67549 21.4741 3.62335C20.9574 3.55258 20.4892 3.63824 20.105 3.95109C19.8754 4.13732 19.7694 4.37568 19.7561 4.64756C19.7385 4.99393 19.8533 5.31423 20.0123 5.62709C20.1668 5.93621 20.3877 6.2081 20.6526 6.45763C20.6438 6.47625 20.6482 6.4837 20.657 6.49115Z" fill="#FF4713"/>
<path d="M27.4575 11.8424C27.4134 11.9392 27.3339 12.0174 27.2765 12.1068C27.1087 12.36 26.9939 12.6281 26.9586 12.9185C26.9365 13.101 26.9365 13.276 27.0204 13.4473C27.1264 13.6745 27.3295 13.8011 27.6032 13.8457C27.8637 13.8904 28.1154 13.8457 28.3538 13.7601C28.5923 13.6745 28.7954 13.5441 28.9896 13.3989C29.259 13.1941 29.4842 12.9632 29.7005 12.7212C29.7491 12.6653 29.8109 12.6169 29.8374 12.5499C29.6696 12.6542 29.5107 12.7659 29.3252 12.8478C29.1 12.9446 28.8616 13.0079 28.6055 12.9558C28.2434 12.8813 27.9918 12.6207 27.9609 12.3041C27.9255 11.9318 28.0668 11.5966 28.2699 11.2764C28.345 11.1573 28.4466 11.0493 28.526 10.9338C28.4289 10.9562 28.3715 11.0269 28.3053 11.0791C28.0359 11.2913 27.771 11.5073 27.5502 11.7568C27.5193 11.7866 27.484 11.8126 27.4575 11.8424Z" fill="#E1251B"/>
<path d="M18.2601 11.2505C18.0437 11.2766 17.8273 11.325 17.6153 11.3734C17.2753 11.4516 16.9485 11.5559 16.6349 11.6937C16.2639 11.8576 15.946 12.0773 15.7119 12.3753C15.5264 12.6136 15.4337 12.8743 15.4602 13.1611C15.4999 13.5484 15.8311 13.9023 16.286 14.0028C16.5024 14.0512 16.7188 14.0401 16.9308 14.0028C17.315 13.9358 17.6639 13.7943 17.9995 13.6304C18.4809 13.3995 18.9579 13.1648 19.4348 12.9302C19.5497 12.8743 19.6689 12.8296 19.7749 12.7589C19.6777 12.7738 19.5806 12.7924 19.4834 12.8036C18.9888 12.852 18.556 12.7514 18.2336 12.4162C17.9068 12.0736 17.9068 11.6453 18.2204 11.2915C18.238 11.2766 18.2469 11.2617 18.2601 11.2505Z" fill="#E1251B"/>
</svg>
