<svg width="57" height="20" viewBox="0 0 57 20" fill="none" xmlns="http://www.w3.org/2000/svg">
<path d="M28.577 19.3105C28.3573 19.2768 28.1525 19.2052 27.9477 19.1293C27.8527 19.0956 27.7528 19.1083 27.6629 19.1335C26.6189 19.4116 25.6948 19.1925 24.8607 18.6365C24.2313 18.2194 23.7967 17.6718 23.452 17.0736C23.1323 16.5175 22.8976 15.9362 22.6278 15.3633C22.438 14.9589 22.2282 14.5629 21.9934 14.1753C21.8436 13.9268 21.6338 13.7077 21.434 13.4887C20.6747 12.6377 19.8056 11.8879 18.7616 11.2813C17.6976 10.662 16.5387 10.2576 15.26 10.106C14.5906 10.0259 13.9213 10.0133 13.2519 10.0259C12.7724 10.0344 12.2978 10.0554 11.8233 10.0891C11.3937 10.1186 10.9591 10.1481 10.5346 10.2155C10.2249 10.2661 9.92515 10.3672 9.62544 10.4556C8.24178 10.8474 6.89808 11.3318 5.58436 11.8668C3.94095 12.5366 2.39745 13.3455 0.913893 14.2385C0.764038 14.3312 0.614184 14.3818 0.439353 14.3059C0.249538 14.2259 0.139644 14.0911 0.124659 13.9099C0.0896927 13.5645 0.259528 13.2823 0.534261 13.0379C0.808995 12.7936 1.14866 12.6209 1.48834 12.4566C2.67718 11.8879 3.88101 11.3445 5.1298 10.8811C6.44353 10.3924 7.79222 9.97539 9.16588 9.61732C9.74033 9.46567 10.2948 9.27611 10.8742 9.1413C11.3138 9.0402 11.7084 8.86327 12.128 8.72005C13.117 8.38304 14.1411 8.14292 15.19 7.96599C15.5547 7.9028 15.9293 7.86068 16.294 7.79749C16.5837 7.74694 16.8684 7.65426 17.1581 7.58265C18.3919 7.25828 19.6157 6.896 20.7946 6.44525C21.8885 6.0282 22.9375 5.53955 23.9066 4.93715C24.0914 4.82341 24.2363 4.66754 24.3961 4.52853C25.0305 3.98089 25.6449 3.4164 26.3292 2.91089C26.4941 2.78873 26.6639 2.66656 26.8437 2.55704C27.1984 2.33798 27.5031 2.06838 27.8478 1.8409C27.9277 1.79035 28.0026 1.73137 28.0825 1.68503C28.4871 1.45755 28.8268 1.15846 29.2214 0.918343C29.626 0.674013 30.0556 0.480234 30.5451 0.39177C31.0546 0.299093 31.5492 0.366495 32.0237 0.530785C32.2884 0.623462 32.5532 0.724564 32.8129 0.825666C33.2825 1.00681 33.732 0.977319 34.1716 0.762477C34.4763 0.615037 34.781 0.463384 35.0907 0.320156C35.4404 0.155866 35.815 0.0463384 36.2196 0.0126377C36.2296 0.0126377 36.2446 0.00842516 36.2446 0H36.7042C36.7092 0.0168503 36.7241 0.0126377 36.7391 0.0168503C37.6582 0.109527 38.3925 0.484447 38.932 1.11212C39.5914 1.87881 39.7512 2.7466 39.5614 3.66495C39.3965 4.45691 38.957 5.13514 38.3376 5.73754C38.1677 5.90183 37.9779 6.05348 37.7981 6.20935C37.6682 6.20513 37.5334 6.19671 37.4035 6.19671C36.6592 6.18828 35.9149 6.1925 35.1706 6.2262C34.9708 6.23462 34.771 6.24305 34.5712 6.2599C34.2565 6.28096 33.9418 6.31045 33.6271 6.33151C33.6321 6.32309 33.6371 6.31466 33.6471 6.30624C33.9418 6.02399 34.1916 5.71647 34.3664 5.36683C34.5463 5.01297 34.6711 4.65069 34.6561 4.25892C34.6412 3.95561 34.5213 3.6818 34.2615 3.47117C33.827 3.11731 33.2975 3.02042 32.713 3.10046C32.3134 3.15522 31.9438 3.29845 31.5791 3.44589C31.0796 3.64388 30.6051 3.85451 30.1405 4.09042C29.696 4.3179 29.2514 4.54538 28.8418 4.81077C28.5371 5.00455 28.2723 5.24045 27.9926 5.45951C27.7728 5.63222 27.553 5.80494 27.3382 5.98187C27.3133 6.00293 27.2633 6.00714 27.2683 6.05348C27.2383 6.04927 27.2234 6.06612 27.2134 6.08718C27.1584 6.12509 27.1035 6.1588 27.0485 6.20092C26.3392 6.74856 25.6149 7.27934 24.8257 7.74273C24.0914 8.17241 23.3172 8.5389 22.458 8.77481C21.8536 8.9391 21.2342 9.03178 20.5998 9.06969C20.1252 9.09496 19.6507 9.09496 19.1762 9.09496C18.7616 9.09496 18.347 9.07811 17.9324 9.15394C18.0473 9.19607 18.1622 9.22977 18.267 9.27189C18.9264 9.5078 19.5009 9.85744 20.0603 10.2281C20.0653 10.2534 20.0803 10.2661 20.1153 10.2661C20.1153 10.2787 20.1203 10.2829 20.1352 10.2829C20.1302 10.3124 20.1552 10.3208 20.1752 10.3377C20.4699 10.5525 20.7297 10.8011 20.9894 11.0454C21.2042 11.2687 21.414 11.4919 21.6088 11.7278C21.7587 11.9132 21.8935 12.1112 22.0634 12.2881C22.5379 12.7852 22.9325 13.3244 23.2722 13.8931C23.502 14.2722 23.7168 14.6556 23.9365 15.0389C24.3811 15.8014 24.8307 16.5597 25.5 17.2084C25.6898 17.3938 25.9096 17.5412 26.1894 17.617C26.2443 17.6297 26.2893 17.6507 26.3342 17.6802C26.6239 17.8782 26.9686 17.9203 27.3183 17.8866C27.6529 17.8529 27.9227 17.6886 28.1375 17.4696C28.1924 17.4148 28.2324 17.3474 28.2973 17.3053C28.4971 17.1705 28.622 17.002 28.7019 16.7998C28.8568 16.3996 28.8318 15.9994 28.7219 15.5992C28.612 15.1948 28.3922 14.8283 28.1225 14.4786C27.7678 14.0237 27.3333 13.6193 26.8937 13.2233C26.604 12.9621 26.2993 12.7094 26.0045 12.4566C25.9796 12.4355 25.9596 12.4103 25.9196 12.4018C25.8847 12.3724 25.8497 12.3429 25.8197 12.3092C25.57 12.0269 25.2703 11.7826 24.9655 11.5425C24.8906 11.4835 24.8257 11.3992 24.7158 11.3782C24.7208 11.3529 24.7058 11.3403 24.6758 11.3361H24.6808C24.6758 11.3234 24.6708 11.3192 24.6558 11.3192C24.461 11.1254 24.2562 10.9401 24.0265 10.7758C23.9665 10.7337 23.9116 10.6915 23.8666 10.6368C23.6568 10.3882 23.4121 10.165 23.1373 9.96697C23.1173 9.95433 23.0874 9.94591 23.0874 9.92063C23.3072 9.89536 23.5269 9.89957 23.7467 9.89114C23.9066 9.88693 24.0664 9.89536 24.2213 9.89957C24.3661 9.90378 24.521 9.89536 24.6608 9.92063C26.3342 10.2029 27.9377 10.6705 29.4662 11.3108C29.9757 11.5256 30.4702 11.7531 30.9797 11.9637C31.9188 12.3513 32.8529 12.7515 33.787 13.1475C33.792 13.1643 33.807 13.1727 33.822 13.1685C33.827 13.1938 33.8519 13.2022 33.8719 13.2149C34.0517 13.3202 34.2316 13.4255 34.4064 13.5308C35.0258 13.8973 35.6252 14.2849 36.2146 14.6809C36.8141 15.0768 37.3985 15.4897 37.9979 15.8814C38.5524 16.2479 39.1368 16.5765 39.8061 16.7787C40.2707 16.9219 40.7502 16.9725 41.2348 16.9093C41.8542 16.8251 42.3936 16.5934 42.7883 16.1679C43.2228 15.7003 43.3577 15.1779 43.1429 14.6092C42.9731 14.1501 42.6034 13.8131 42.1788 13.514C42.064 13.4297 41.9191 13.3749 41.8192 13.2738C41.6344 13.0843 41.4296 12.9158 41.2048 12.7641C40.6303 12.3724 39.976 12.1196 39.2617 11.9595C38.5773 11.8037 37.873 11.7447 37.1687 11.6815C36.834 11.652 36.4944 11.6309 36.1597 11.6057C35.9199 11.4203 35.6502 11.2813 35.3555 11.1676C34.761 10.9443 34.1367 10.8095 33.5023 10.6915C32.8979 10.582 32.2834 10.4935 31.684 10.3714C30.8748 10.2029 30.0806 9.98803 29.2864 9.77319C29.1515 9.73528 29.0066 9.71421 28.8817 9.64681C28.4671 9.43197 28.0675 9.20028 27.6829 8.94752C27.6579 8.93067 27.623 8.92225 27.623 8.88855C27.6529 8.88012 27.6829 8.87591 27.7079 8.8717C29.0266 8.63579 30.3553 8.43359 31.704 8.32827C32.2884 8.28194 32.8779 8.25245 33.4673 8.24824C34.1666 8.23981 34.8659 8.26509 35.5653 8.31564C35.9899 8.34513 36.4144 8.38725 36.839 8.42938C37.3335 8.47572 37.8281 8.53048 38.3226 8.54312C38.7222 8.55154 39.1218 8.56839 39.5214 8.58103C39.8411 8.58946 40.1558 8.61052 40.4755 8.59788C40.97 8.57682 41.4546 8.50942 41.9341 8.4041C42.2338 8.3367 42.5285 8.24824 42.8182 8.15556C42.9181 8.16398 43.013 8.14292 43.1079 8.1345C43.3777 8.11343 43.6374 8.05446 43.9022 8.00812C43.9122 8.01233 43.9222 8.01654 43.9321 8.01654C44.122 7.99969 44.3118 7.97863 44.5016 7.96599C44.8113 7.94493 45.116 7.90702 45.4157 7.8691C45.8403 7.81434 46.2649 7.74694 46.6845 7.6669C47.4987 7.51946 48.2879 7.32147 49.0422 7.02237C49.8464 6.70643 50.5607 6.28517 51.1501 5.72069C51.4149 5.46372 51.6347 5.18569 51.7895 4.86975C51.9294 4.59171 51.9594 4.30105 51.8495 4.01459C51.6896 3.58912 51.335 3.32373 50.8504 3.17207C50.4109 3.03306 49.9613 3.00357 49.4967 3.03727C49.1521 3.06255 48.8074 3.10046 48.4727 3.17207C47.7634 3.3153 47.0991 3.55542 46.4497 3.82081C45.9402 4.02723 45.4407 4.2505 44.9362 4.46955C44.4267 4.6886 43.9172 4.90766 43.3977 5.10565C42.6284 5.40053 41.8242 5.61959 41.01 5.80494C40.4755 5.92289 39.936 6.01978 39.3965 6.09982C39.1867 6.13352 38.9819 6.16722 38.7722 6.17986C38.8321 6.15037 38.897 6.12088 38.957 6.09561C40.3456 5.48899 41.6494 4.77286 42.8482 3.92613C43.5725 3.41219 44.2768 2.88141 45.0261 2.38853C45.6854 1.95464 46.3748 1.55444 47.144 1.26377C48.218 0.855154 49.3319 0.665588 50.5058 0.825666C51.1851 0.918343 51.7995 1.13318 52.339 1.49547C52.4888 1.59657 52.6337 1.70188 52.8035 1.78192C52.9034 1.83247 53.0083 1.84932 53.1232 1.8409C53.2081 1.83669 53.2931 1.81984 53.373 1.79877C54.1722 1.59657 54.8965 1.73137 55.5509 2.16105C56.0704 2.50649 56.43 2.95302 56.6948 3.45853C56.9195 3.88821 57.0444 4.33475 56.9545 4.80656C56.8746 5.24467 56.6198 5.59431 56.1303 5.7923C56.0454 5.826 55.9605 5.86813 55.8756 5.91025C55.6757 6.00293 55.5509 6.14616 55.4859 6.3273C55.456 6.41576 55.431 6.50844 55.416 6.60533C55.376 6.88757 55.3611 7.16982 55.3111 7.45206C55.2012 8.09658 54.8915 8.65264 54.342 9.11182C53.5029 9.8111 52.4739 10.1565 51.315 10.2408C50.6107 10.2913 49.9063 10.2408 49.212 10.1481C48.3329 10.0344 47.4637 9.87429 46.5896 9.7437C45.5606 9.59205 44.5316 9.45725 43.4976 9.36457C42.6184 9.28453 41.7343 9.22556 40.8451 9.18764C39.931 9.14552 39.0219 9.12445 38.1078 9.12445C37.1138 9.12024 36.1147 9.12024 35.1207 9.13709C34.6212 9.14552 34.1267 9.15394 33.6271 9.16237C32.8029 9.175 31.9837 9.18343 31.1595 9.20028C30.64 9.2087 30.1205 9.18764 29.606 9.2424C29.4412 9.25926 29.2764 9.27189 29.1115 9.28874C29.1415 9.30981 29.1765 9.32244 29.2114 9.33087C30.2954 9.63839 31.3993 9.89536 32.5232 10.0933C32.8079 10.1439 33.0927 10.2113 33.3824 10.2239C33.757 10.245 34.1317 10.245 34.5063 10.2408C35.2656 10.2282 36.0198 10.1987 36.7741 10.1776C37.4185 10.1607 38.0628 10.1565 38.7072 10.1818C39.4565 10.2155 40.2058 10.2871 40.9301 10.4556C41.7543 10.641 42.5335 10.919 43.2128 11.3655C44.052 11.9174 44.5615 12.6167 44.5715 13.5392C44.5765 13.9521 44.7414 14.3101 45.096 14.6008C45.2509 14.7272 45.4007 14.8662 45.5206 15.0179C45.9052 15.5149 46.0101 16.0584 45.8952 16.6355C45.7054 17.5665 44.7014 18.2868 43.5825 18.3163C43.2778 18.3247 42.9831 18.2868 42.6884 18.2489C42.4186 18.211 42.1739 18.2489 41.9591 18.4048C41.8642 18.4722 41.7692 18.5354 41.6743 18.6028C41.4496 18.7586 41.2248 18.9103 40.965 19.0156C40.4056 19.2346 39.8261 19.2431 39.2367 19.1293C38.5424 18.9903 37.9679 18.6786 37.4584 18.27C37.0288 17.9287 36.6592 17.5412 36.2946 17.1494C35.1357 15.9067 33.9019 14.723 32.5232 13.6488C32.0537 13.2823 31.5841 12.92 31.0446 12.6251C29.7409 11.9216 28.3672 11.3529 26.8987 10.9317C26.8687 10.9232 26.8437 10.9022 26.8088 10.919C26.8188 10.9485 26.8487 10.9569 26.8687 10.9738C27.0785 11.1212 27.2883 11.2729 27.4831 11.4372C28.4771 12.2586 29.2664 13.2107 29.8758 14.2596C30.4103 15.1864 30.72 16.1637 30.69 17.2042C30.675 17.6549 30.5701 18.0888 30.3104 18.4848C30.0506 18.885 29.676 19.1715 29.1465 19.2936C29.0616 19.3147 28.9717 19.3273 28.8817 19.3442H28.577V19.3105ZM26.8237 10.8727L26.8188 10.8685L26.8138 10.8727C26.8188 10.8727 26.8188 10.8769 26.8237 10.8769C26.8237 10.8769 26.8237 10.8769 26.8237 10.8727Z" fill="#FF9E18"/>
<path d="M33.7971 13.1265C32.863 12.7305 31.9289 12.3303 30.9899 11.9427C30.4803 11.7321 29.9808 11.5046 29.4763 11.2898C27.9478 10.6495 26.3444 10.1861 24.671 9.89964C24.5261 9.87436 24.3763 9.88279 24.2314 9.87858C24.0716 9.87436 23.9117 9.86594 23.7569 9.87015C23.5371 9.87858 23.3173 9.87436 23.0975 9.89964C23.1025 9.92491 23.1325 9.93334 23.1475 9.94598C23.4222 10.144 23.667 10.3672 23.8768 10.6158C23.9217 10.6705 23.9767 10.7127 24.0366 10.7548C24.2664 10.9191 24.4712 11.1044 24.666 11.2982C24.671 11.3066 24.676 11.3151 24.691 11.3151C24.691 11.3361 24.706 11.353 24.7309 11.3572C24.8209 11.4878 24.9357 11.6099 25.0207 11.7447C25.2504 12.107 25.4103 12.4862 25.3703 12.9074C25.3353 13.2655 25.0556 13.5604 24.646 13.6446C24.3563 13.7036 24.0866 13.632 23.8318 13.5225C23.622 13.4298 23.4372 13.3034 23.2524 13.1855C23.1325 13.0886 23.0126 12.9959 22.8977 12.899C22.5031 12.562 22.1634 12.1829 21.8238 11.8079C21.609 11.5762 21.4042 11.3361 21.1694 11.1171C21.1594 11.1002 21.1494 11.0834 21.1294 11.0749C21.1244 11.0707 21.1194 11.0623 21.1145 11.0581C21.1045 11.0497 21.0945 11.037 21.0845 11.0286C20.9246 10.8559 20.7448 10.7 20.555 10.5484C20.4301 10.4473 20.3052 10.3462 20.1604 10.2661C20.1604 10.2577 20.1554 10.2493 20.1404 10.2493C20.1304 10.2282 20.1054 10.2198 20.0855 10.2114C19.526 9.84066 18.9516 9.49102 18.2922 9.25512C18.1823 9.2172 18.0724 9.17929 17.9575 9.13716C18.3771 9.06134 18.7917 9.07819 19.2013 9.07819C19.6759 9.07819 20.1504 9.0824 20.6249 9.05291C21.2593 9.01921 21.8787 8.92232 22.4831 8.75803C23.3373 8.52634 24.1165 8.15563 24.8508 7.72595C25.6401 7.26257 26.3643 6.73178 27.0737 6.18415C27.1236 6.14202 27.1836 6.10832 27.2385 6.07041C27.2585 6.06198 27.2835 6.05777 27.2934 6.03671C27.4033 5.99037 27.5082 5.93139 27.6131 5.87242C27.6331 5.8682 27.6531 5.85978 27.6681 5.84293C27.6981 5.83029 27.733 5.81765 27.763 5.8008C27.9728 5.69549 28.1876 5.5986 28.4124 5.51856C28.7271 5.40061 29.0467 5.30372 29.4064 5.32899C29.811 5.36269 30.1357 5.58596 30.2306 5.91875C30.2955 6.15466 30.2456 6.38214 30.1257 6.59698C30.0857 6.66438 30.0408 6.73178 30.0008 6.80339C30.0857 6.81182 30.1607 6.79497 30.2356 6.79497C30.6352 6.79918 31.0348 6.77391 31.4344 6.78654C31.859 6.79918 32.2886 6.79918 32.7132 6.82025C33.1877 6.84131 33.6573 6.86237 34.1318 6.88343C34.7762 6.90871 35.4255 6.9382 36.0699 6.95505C36.5794 6.96769 37.0889 6.96769 37.5984 6.95083C38.1979 6.92977 38.7923 6.89186 39.3817 6.81182C40.116 6.71493 40.8303 6.55485 41.5196 6.32316C41.8743 6.20521 42.2139 6.05356 42.6036 6.02828C43.0581 5.99458 43.4677 6.08304 43.7974 6.3695C44.177 6.70651 44.222 7.16146 43.9123 7.52375C43.7674 7.68804 43.5826 7.81441 43.3728 7.9113C43.208 7.98292 43.0431 8.05032 42.8783 8.11772C42.5886 8.2104 42.2939 8.29886 41.9942 8.36626C41.5146 8.47158 41.0251 8.54319 40.5356 8.56004C40.2209 8.57268 39.9012 8.55161 39.5815 8.53898C39.1819 8.52634 38.7823 8.5137 38.3827 8.50106C37.8832 8.48843 37.3936 8.43787 36.8991 8.38732C36.4745 8.3452 36.0499 8.30729 35.6253 8.27359C34.926 8.22303 34.2267 8.20197 33.5274 8.20618C32.938 8.2104 32.3535 8.23988 31.7641 8.28622C30.4204 8.39154 29.0917 8.58953 27.768 8.82965C27.738 8.83386 27.713 8.84228 27.6831 8.84649C27.6881 8.8802 27.723 8.88862 27.743 8.90547C28.1276 9.15823 28.5272 9.38992 28.9418 9.60476C29.0667 9.66795 29.2116 9.69322 29.3465 9.73114C30.1407 9.94598 30.9349 10.165 31.7441 10.3293C32.3485 10.4515 32.9579 10.54 33.5624 10.6495C34.1967 10.7632 34.8211 10.9022 35.4106 11.1255C35.7053 11.235 35.98 11.3783 36.2148 11.5636C36.2647 11.6057 36.3097 11.6521 36.3596 11.6942C36.3696 11.7068 36.3846 11.7237 36.3946 11.7363C36.7493 12.1365 36.7543 12.621 36.3846 13.0085C36.02 13.3877 35.5304 13.5014 34.971 13.4466C34.8611 13.434 34.7512 13.4129 34.6413 13.3961C34.4964 13.3497 34.3516 13.2992 34.2067 13.2529C34.0918 13.2149 33.9819 13.156 33.8621 13.1223C33.8321 13.1349 33.8121 13.1349 33.7971 13.1265Z" fill="#12100B"/>
<path d="M38.3076 6.22623C38.4675 6.20517 38.6223 6.1841 38.7822 6.16725C38.7921 6.16304 38.7971 6.16304 38.8071 6.15883C39.0169 6.14619 39.2267 6.11249 39.4315 6.083C39.976 6.00296 40.5155 5.90607 41.05 5.78812C41.8642 5.60698 42.6684 5.38793 43.4376 5.08883C43.9571 4.89084 44.4666 4.67179 44.9761 4.45273C45.4806 4.23368 45.9802 4.01041 46.4897 3.804C47.144 3.5386 47.8084 3.29849 48.5127 3.15526C48.8474 3.08786 49.192 3.04573 49.5367 3.02046C50.0013 2.98676 50.4508 3.02046 50.8904 3.15526C51.3749 3.30691 51.7296 3.5723 51.8894 3.99777C51.9993 4.28844 51.9644 4.5749 51.8295 4.85293C51.6746 5.16887 51.4548 5.4469 51.1901 5.70387C50.6007 6.26836 49.8864 6.68961 49.0822 7.00556C48.3279 7.30465 47.5337 7.50264 46.7244 7.65008C46.3048 7.72591 45.8803 7.79752 45.4557 7.85229C45.151 7.8902 44.8463 7.92811 44.5416 7.94917C44.3517 7.96181 44.1619 7.98287 43.9721 7.99973C43.9621 7.99973 43.9521 7.99551 43.9421 7.9913C43.9821 7.96181 44.0321 7.9576 44.077 7.94496C44.5366 7.81858 44.9562 7.63323 45.2808 7.31729C45.6255 6.98449 45.8003 6.60115 45.7254 6.15462C45.6405 5.64489 45.136 5.35001 44.5565 5.4469C44.2818 5.49324 44.0271 5.59434 43.7673 5.67859C43.3977 5.79655 43.028 5.90186 42.6484 5.98611C42.2638 6.07036 41.8742 6.14619 41.4795 6.18832C41.1349 6.22623 40.7952 6.26836 40.4505 6.27257C39.931 6.27678 39.4165 6.28099 38.897 6.25993C38.7222 6.2515 38.5474 6.23465 38.3676 6.24308C38.3376 6.24308 38.3176 6.24308 38.3076 6.22623Z" fill="#FF4713"/>
<path d="M33.832 13.1475C33.9519 13.1812 34.0618 13.2359 34.1767 13.278C34.3216 13.3244 34.4665 13.3749 34.6113 13.4213C34.7262 13.5013 34.8661 13.5519 34.996 13.6151C35.5355 13.8805 36.08 14.1459 36.6195 14.4071C36.9992 14.5925 37.3938 14.7483 37.8284 14.8284C38.0732 14.8705 38.318 14.8832 38.5578 14.8284C39.0723 14.7146 39.447 14.3144 39.4919 13.8763C39.5269 13.5519 39.417 13.257 39.2072 12.9874C38.9424 12.6503 38.5827 12.406 38.1631 12.2164C37.8084 12.0605 37.4388 11.9468 37.0541 11.8541C36.8143 11.7993 36.5746 11.7446 36.3248 11.7151C36.2748 11.6729 36.2299 11.6266 36.1799 11.5845C36.5146 11.6097 36.8543 11.6266 37.189 11.6603C37.8934 11.7235 38.5927 11.7867 39.2821 11.9384C39.9915 12.0984 40.6509 12.3512 41.2253 12.743C41.4501 12.8947 41.66 13.0632 41.8398 13.2528C41.9347 13.3539 42.0796 13.4086 42.1995 13.4929C42.6241 13.792 42.9937 14.1291 43.1636 14.5883C43.3734 15.1612 43.2385 15.6836 42.8089 16.147C42.4143 16.5725 41.8798 16.8042 41.2553 16.8885C40.7708 16.9559 40.2912 16.9011 39.8216 16.7579C39.1522 16.5515 38.5677 16.2229 38.0132 15.8605C37.4138 15.4645 36.8243 15.0559 36.2299 14.6599C35.6354 14.2639 35.0359 13.8763 34.4215 13.5098C34.2417 13.4044 34.0668 13.2991 33.887 13.1938C33.862 13.1812 33.842 13.1727 33.832 13.1475Z" fill="#FF4713"/>
<path d="M21.0646 11.0327C21.0746 11.0411 21.0845 11.0538 21.0945 11.0622C21.0995 11.0664 21.1045 11.0748 21.1095 11.0791C21.1095 11.1001 21.1245 11.117 21.1495 11.1212C21.3843 11.3403 21.5891 11.5804 21.8039 11.8121C22.1486 12.187 22.4833 12.5662 22.8779 12.9032C22.9928 13.0001 23.1177 13.097 23.2326 13.1897C23.2576 13.2698 23.3275 13.3245 23.3875 13.3835C23.6322 13.6531 23.887 13.9185 24.1917 14.1502C24.4115 14.3145 24.6413 14.462 24.9111 14.5589C25.1858 14.6558 25.4656 14.7063 25.7603 14.6558C26.07 14.601 26.2998 14.4578 26.4197 14.205C26.5097 14.0112 26.5146 13.8132 26.4897 13.6068C26.4447 13.2782 26.3148 12.9748 26.13 12.6884C26.0651 12.5873 25.9751 12.4988 25.9252 12.3893C25.9651 12.3935 25.9851 12.423 26.0101 12.4398C26.3098 12.6968 26.6096 12.9454 26.8993 13.2066C27.3389 13.6026 27.7735 14.0028 28.1282 14.462C28.3979 14.8117 28.6128 15.1782 28.7277 15.5826C28.8376 15.9828 28.8625 16.3873 28.7077 16.7833C28.6277 16.9813 28.5029 17.154 28.303 17.2888C28.2381 17.331 28.1931 17.3984 28.1432 17.4531C27.9284 17.6722 27.6586 17.8365 27.3239 17.8702C26.9742 17.9081 26.6295 17.8618 26.3398 17.6638C26.2948 17.6343 26.2499 17.6132 26.1949 17.6006C25.9152 17.5248 25.6954 17.3731 25.5056 17.1919C24.8362 16.5432 24.3866 15.7848 23.942 15.0223C23.7222 14.6389 23.5074 14.2556 23.2776 13.8764C22.9379 13.3077 22.5432 12.7684 22.0687 12.2713C21.9038 12.0944 21.7689 11.9006 21.6141 11.7152C21.4192 11.4793 21.2094 11.256 20.9946 11.0327H21.0646Z" fill="#FF4713"/>
<path d="M38.3066 6.2262C38.3216 6.24305 38.3416 6.24726 38.3616 6.24305C38.5364 6.23462 38.7162 6.25147 38.891 6.2599C39.4105 6.28096 39.925 6.27675 40.4445 6.27254C40.7892 6.26832 41.1339 6.23041 41.4735 6.18828C41.8681 6.14195 42.2578 6.07033 42.6424 5.98608C43.022 5.90183 43.3967 5.7923 43.7613 5.67856C44.021 5.59431 44.2758 5.4932 44.5505 5.44687C45.13 5.34998 45.6345 5.64065 45.7194 6.15458C45.7943 6.60112 45.6145 6.98025 45.2748 7.31726C44.9501 7.63321 44.5306 7.81856 44.071 7.94494C44.026 7.95758 43.9711 7.96179 43.9361 7.99128C43.6714 8.03762 43.4116 8.09238 43.1419 8.11766C43.047 8.12608 42.9521 8.14714 42.8522 8.13872C43.017 8.07132 43.1869 8.00392 43.3467 7.9323C43.5615 7.83962 43.7463 7.71325 43.8862 7.54474C44.2009 7.17825 44.1559 6.72328 43.7763 6.39049C43.4516 6.10403 43.042 6.01557 42.5824 6.04927C42.1928 6.07454 41.8532 6.2262 41.4985 6.34415C40.8092 6.57584 40.0949 6.73592 39.3606 6.83281C38.7712 6.91285 38.1767 6.95077 37.5773 6.97183C37.0678 6.98868 36.5583 6.98868 36.0488 6.97604C35.3994 6.95919 34.7551 6.9297 34.1107 6.90443C33.6361 6.88758 33.1666 6.8623 32.6921 6.84124C32.2675 6.82439 31.8379 6.82017 31.4133 6.80754C31.0137 6.7949 30.6141 6.82017 30.2145 6.81596C30.1395 6.81596 30.0646 6.83281 29.9797 6.82439C30.0247 6.75277 30.0696 6.68537 30.1046 6.61797C30.2245 6.40313 30.2744 6.17565 30.2095 5.93974C30.1146 5.60694 29.7949 5.38368 29.3853 5.34998C29.0256 5.32049 28.7059 5.42159 28.3912 5.53954C28.1665 5.6238 27.9517 5.72069 27.7419 5.82179C27.7119 5.83864 27.6769 5.84706 27.647 5.8597C27.647 5.85128 27.647 5.83864 27.657 5.83443C27.8268 5.71226 27.9966 5.59009 28.1715 5.47214C28.5511 5.2236 28.9757 5.05088 29.4402 4.93293C29.69 4.86974 29.9298 4.77706 30.1495 4.6549C30.3094 4.56222 30.4642 4.46533 30.6391 4.3895C30.9588 4.25049 31.2884 4.19994 31.6381 4.30946C32.0277 4.42742 32.2775 4.73072 32.2825 5.08037C32.2875 5.37946 32.1626 5.65328 31.9778 5.90604C31.7979 6.15458 31.5582 6.361 31.3084 6.56321C31.2834 6.58427 31.2485 6.60112 31.2335 6.64324C31.3334 6.62639 31.4333 6.60954 31.5282 6.59691C31.8529 6.55478 32.1726 6.50844 32.4973 6.47053C32.742 6.44104 32.9818 6.41576 33.2265 6.39049C33.3614 6.37785 33.4913 6.361 33.6262 6.34836C33.9409 6.32309 34.2555 6.29781 34.5702 6.27675C34.77 6.26411 34.9699 6.25147 35.1697 6.24305C35.9139 6.20935 36.6582 6.20513 37.4025 6.21356C37.5324 6.21356 37.6672 6.22198 37.7971 6.2262C37.9619 6.22198 38.1318 6.23884 38.3066 6.2262Z" fill="#E1251B"/>
<path d="M33.6173 6.33588C33.4824 6.34852 33.3526 6.36537 33.2177 6.37801C32.9729 6.40329 32.7281 6.42857 32.4883 6.45806C32.1636 6.50018 31.8389 6.54231 31.5192 6.58444C31.4243 6.59708 31.3244 6.61393 31.2245 6.63078C31.2395 6.58865 31.2744 6.5718 31.2994 6.55074C31.5492 6.34852 31.789 6.1463 31.9688 5.89353C32.1536 5.64076 32.2785 5.36692 32.2735 5.06781C32.2685 4.72235 32.0188 4.41902 31.6291 4.30106C31.2794 4.19574 30.9497 4.2463 30.63 4.38111C30.4552 4.45694 30.3053 4.55805 30.1404 4.64652C29.9206 4.76869 29.6809 4.86138 29.4311 4.92457C28.9715 5.04253 28.5419 5.21526 28.1622 5.46382C27.9874 5.57756 27.8175 5.70395 27.6477 5.82612C27.6427 5.83034 27.6427 5.84298 27.6377 5.8514C27.6077 5.84719 27.5927 5.85983 27.5828 5.88089C27.4778 5.93987 27.3779 5.99885 27.263 6.04519C27.258 6.00307 27.308 5.99464 27.333 5.97357C27.5528 5.80085 27.7676 5.62391 27.9874 5.45118C28.2671 5.23211 28.5369 4.99619 28.8366 4.8024C29.2463 4.53699 29.6909 4.30949 30.1355 4.082C30.595 3.84607 31.0746 3.63122 31.5592 3.43743C31.9238 3.29419 32.2885 3.15095 32.6932 3.09197C33.2776 3.01193 33.8071 3.10882 34.2418 3.4627C34.5015 3.67335 34.6214 3.94297 34.6364 4.25051C34.6564 4.64231 34.5265 5.00461 34.3467 5.3585C34.1718 5.70816 33.922 6.0157 33.6223 6.29797C33.6323 6.31903 33.6273 6.32746 33.6173 6.33588Z" fill="#FF4713"/>
<path d="M25.9245 12.3893C25.9745 12.4988 26.0644 12.5873 26.1293 12.6884C26.3192 12.9749 26.4491 13.2782 26.489 13.6068C26.514 13.8132 26.514 14.0112 26.4191 14.205C26.2992 14.462 26.0694 14.6053 25.7597 14.6558C25.4649 14.7064 25.1802 14.6558 24.9104 14.5589C24.6407 14.462 24.4109 14.3146 24.1911 14.1503C23.8863 13.9186 23.6316 13.6574 23.3868 13.3835C23.3318 13.3203 23.2619 13.2656 23.2319 13.1897C23.4218 13.3077 23.6016 13.4341 23.8114 13.5268C24.0662 13.6363 24.3359 13.7079 24.6257 13.6489C25.0353 13.5647 25.3201 13.2698 25.355 12.9117C25.395 12.4904 25.2351 12.1112 25.0053 11.7489C24.9204 11.6141 24.8055 11.4919 24.7156 11.3613C24.8255 11.3866 24.8904 11.4667 24.9654 11.5256C25.2701 11.7658 25.5698 12.0101 25.8196 12.2924C25.8546 12.3261 25.8945 12.3556 25.9245 12.3893Z" fill="#E1251B"/>
<path d="M36.3297 11.7195C36.5745 11.749 36.8192 11.8037 37.059 11.8585C37.4437 11.947 37.8134 12.0649 38.168 12.2208C38.5877 12.4062 38.9473 12.6547 39.2121 12.9918C39.4219 13.2614 39.5268 13.5563 39.4969 13.8807C39.4519 14.3188 39.0772 14.719 38.5627 14.8328C38.3179 14.8875 38.0731 14.8749 37.8333 14.8328C37.3987 14.7569 37.0041 14.5969 36.6244 14.4115C36.0799 14.1503 35.5404 13.8849 35.0009 13.6195C34.871 13.5563 34.7361 13.5057 34.6162 13.4257C34.7261 13.4425 34.836 13.4636 34.9459 13.4762C35.5054 13.531 35.995 13.4173 36.3597 13.0381C36.7293 12.6505 36.7293 12.166 36.3746 11.7658C36.3547 11.749 36.3447 11.7321 36.3297 11.7195Z" fill="#E1251B"/>
</svg>
