<svg width="136" height="171" viewBox="0 0 136 171" fill="none" xmlns="http://www.w3.org/2000/svg">
<path d="M122.032 96.2157C120.466 95.3019 118.532 95.2663 117.103 96.1268C115.932 96.8313 115.282 98.0133 115.272 99.4633L115.275 99.648C115.334 101.498 116.388 102.7 118.032 102.79C119.539 102.871 120.896 101.998 121.052 100.844C121.224 99.5386 120.644 98.9681 120.313 98.741C119.777 98.3799 119.037 98.3607 118.471 98.6904C117.93 99.0037 117.647 99.6863 117.805 100.296C117.952 100.864 118.414 101.236 118.985 101.239C119.165 101.24 119.305 101.246 119.411 101.251C119.056 101.481 118.557 101.611 118.096 101.588C117.511 101.556 116.525 101.257 116.473 99.6083L116.471 99.4661C116.479 98.4592 116.919 97.6398 117.715 97.1596C118.762 96.5303 120.255 96.5673 121.432 97.2581C122.521 97.8888 123.275 99.659 123.109 101.305C123.011 102.29 122.508 104.058 120.221 104.834C116.396 106.135 113.107 101.902 112.607 101.22C112.037 99.4168 111.893 97.8258 112.155 96.3334C113.48 88.7916 119.344 86.1814 119.397 86.1582C119.619 86.0679 119.763 85.8545 119.766 85.5563C119.766 85.5535 119.766 85.5508 119.766 85.548C119.76 85.4933 119.722 85.4564 119.706 85.4058C119.724 85.3579 119.762 85.3196 119.77 85.2662C119.77 85.2635 119.77 85.2608 119.77 85.2567C119.771 84.9584 119.628 84.7437 119.407 84.6493C119.355 84.626 113.529 81.9311 112.31 74.3701C112.07 72.8749 112.238 71.2839 112.835 69.4891C113.343 68.8133 116.691 64.6313 120.499 65.9884C122.773 66.7955 123.249 68.5712 123.334 69.5561C123.477 71.2046 122.698 72.9638 121.6 73.5794C120.415 74.2511 118.92 74.2689 117.882 73.6232C117.095 73.1321 116.664 72.3085 116.672 71.3017L116.676 71.1581C116.752 69.5096 117.741 69.2237 118.327 69.2004C118.789 69.1854 119.284 69.3195 119.637 69.5575C119.531 69.563 119.39 69.5643 119.211 69.563C118.638 69.5589 118.171 69.9228 118.015 70.4891C117.848 71.0965 118.122 71.7819 118.66 72.1033C119.222 72.4412 119.962 72.433 120.503 72.0815C120.838 71.8571 121.425 71.2976 121.271 69.9884C121.13 68.8325 119.788 67.9405 118.281 67.998C116.635 68.0623 115.562 69.2524 115.476 71.0979L115.471 71.2825C115.46 72.7326 116.092 73.9269 117.253 74.6478C118.67 75.5261 120.605 75.5179 122.184 74.6287C123.715 73.7696 124.712 71.6068 124.527 69.4549C124.345 67.2839 123.023 65.6067 120.899 64.8488C118.221 63.8953 115.803 65.1142 114.14 66.448C114.868 65.0226 115.727 63.6012 116.564 62.2154C118.587 58.8652 120.497 55.701 120.518 52.6928C120.521 52.3549 120.499 52.0238 120.453 51.7092C120.158 49.582 119.533 47.7488 118.655 46.415C118.653 46.4068 118.623 46.3603 118.584 46.3111C117.99 45.4328 117.272 44.7762 116.462 44.3822C115.441 43.8897 114.342 43.8842 113.525 44.3699C112.582 44.9308 111.913 46.1154 111.908 47.255C111.905 47.4971 111.936 47.7324 111.993 47.9513C112.14 48.493 112.709 49.7571 114.856 49.7721C115.063 49.7735 115.256 49.6695 115.366 49.4903C115.476 49.3125 115.487 49.0908 115.399 48.9103C115.264 48.6271 115.013 47.9595 115.018 47.4356C115.018 47.1866 115.077 47.0252 115.187 46.9445C115.917 46.4397 116.978 46.5067 117.667 47.0949C118.447 48.2742 118.987 49.8816 119.269 51.8829C119.305 52.1401 119.321 52.4096 119.32 52.6818C119.301 55.359 117.474 58.3864 115.539 61.5875C113.644 64.723 111.709 67.9515 111.165 71.2661V42.995H84.9389C87.4645 42.1537 89.9451 40.6776 92.3673 39.2207C95.5633 37.2987 98.5852 35.4834 101.247 35.4834C101.517 35.4834 101.785 35.5025 102.041 35.5408C104.028 35.8377 105.623 36.3931 106.787 37.1851C107.369 37.8842 107.427 38.9499 106.919 39.6817C106.84 39.7926 106.679 39.8486 106.432 39.8486C105.911 39.8486 105.249 39.5901 104.969 39.4519C104.788 39.3657 104.569 39.3726 104.391 39.4834C104.213 39.5942 104.108 39.7857 104.108 39.995C104.108 42.1551 105.361 42.7365 105.898 42.8883C106.114 42.9485 106.347 42.9786 106.589 42.9786C107.72 42.9786 108.903 42.3192 109.468 41.374C109.956 40.5532 109.959 39.4478 109.477 38.4177C109.091 37.601 108.444 36.8732 107.576 36.2713C107.526 36.2316 107.482 36.2002 107.474 36.1988C106.154 35.3055 104.335 34.6653 102.223 34.3493C101.912 34.3014 101.581 34.2781 101.245 34.2781C98.2547 34.2781 95.0954 36.1769 91.7512 38.1879C90.3667 39.0196 88.9469 39.8733 87.5257 40.5969C88.8625 38.9321 90.0947 36.5094 89.1645 33.8117C88.4273 31.668 86.7695 30.326 84.6125 30.1276C82.4746 29.9265 80.3177 30.9156 79.4513 32.4478C78.5551 34.0292 78.5333 35.9758 79.3969 37.4068C80.1055 38.5778 81.2887 39.2235 82.7289 39.2235L82.9125 39.2207C84.7499 39.1482 85.9399 38.0784 86.0147 36.4245C86.0841 34.9061 85.2069 33.549 84.059 33.3999C82.7602 33.2357 82.1985 33.824 81.9741 34.1591C81.6192 34.7009 81.6056 35.445 81.9388 36.0128C82.2529 36.5572 82.9329 36.8363 83.5395 36.6708C84.1039 36.5189 84.4684 36.0497 84.4684 35.4765C84.4684 35.2959 84.4711 35.155 84.4779 35.0483C84.7105 35.4054 84.8424 35.9047 84.8233 36.3698C84.7948 36.9581 84.5051 37.9526 82.8663 38.0169L82.7194 38.0142C81.7198 38.0142 80.9025 37.5764 80.421 36.7802C79.7873 35.731 79.8158 34.2275 80.4917 33.0387C81.1119 31.9375 82.8649 31.1673 84.5037 31.3233C85.4829 31.4149 87.2455 31.9101 88.0316 34.2015C89.3535 38.0415 85.1701 41.3794 84.4956 41.887C82.7072 42.4725 81.1241 42.6312 79.639 42.3781C72.1318 41.099 69.4948 35.2193 69.4717 35.166C69.3792 34.943 69.167 34.7994 68.8692 34.7994C68.8651 34.7994 68.8624 34.7994 68.8597 34.7994C68.8066 34.8035 68.7699 34.8431 68.7196 34.8609C68.672 34.8431 68.6339 34.8035 68.5795 34.7994C68.5768 34.7994 68.5741 34.7994 68.5713 34.7994C68.2749 34.7994 68.0613 34.943 67.9702 35.166C67.9471 35.2193 65.3101 41.1004 57.8029 42.3781C56.3177 42.6312 54.7361 42.4725 52.9463 41.887C52.2717 41.3794 48.0884 38.0415 49.4089 34.2015C50.1977 31.9101 51.9589 31.4149 52.9381 31.3233C54.5756 31.1687 56.3313 31.9389 56.9501 33.0387C57.6274 34.2275 57.6546 35.731 57.0209 36.7802C56.5394 37.5764 55.7221 38.0142 54.7211 38.0142L54.5797 38.0114C52.9409 37.9471 52.6512 36.9526 52.6226 36.3643C52.6036 35.8992 52.7355 35.3999 52.9667 35.0429C52.9721 35.1509 52.9762 35.2905 52.9762 35.471C52.9762 36.0442 53.3407 36.5135 53.9051 36.6653C54.5103 36.8308 55.1903 36.5518 55.5058 36.0073C55.8377 35.4396 55.8241 34.6954 55.4691 34.1537C55.2461 33.8185 54.6844 33.2316 53.3856 33.3944C52.235 33.5435 51.3592 34.9006 51.4285 36.4191C51.5047 38.0716 52.6947 39.1428 54.5307 39.2153L54.7143 39.218C56.1559 39.218 57.3377 38.5723 58.0463 37.4013C58.9113 35.9704 58.8895 34.0251 57.9919 32.4423C57.1256 30.9088 54.9686 29.9197 52.8321 30.1222C50.6751 30.3205 49.0159 31.6625 48.2788 33.8062C47.3513 36.5039 48.5821 38.9266 49.9189 40.5915C48.4964 39.8692 47.0765 39.0142 45.6921 38.1824C42.3492 36.1715 39.1899 34.2727 36.1993 34.2727C35.8606 34.2727 35.5329 34.2973 35.2214 34.3438C33.1066 34.6598 31.291 35.2987 29.9705 36.1933C29.9623 36.1933 29.9174 36.2248 29.8671 36.2658C28.9994 36.8664 28.3521 37.5955 27.9672 38.4122C27.4857 39.4423 27.4871 40.5491 27.9753 41.3685C28.5397 42.3138 29.7243 42.9732 30.8558 42.9732C31.0965 42.9732 31.3305 42.9431 31.5467 42.8829C32.0839 42.7324 33.3365 42.1496 33.3365 39.9895C33.3365 39.7802 33.2304 39.5901 33.0536 39.4779C32.8754 39.3671 32.6565 39.3603 32.4756 39.4464C32.1954 39.5846 31.5331 39.8432 31.0122 39.8432C30.7661 39.8432 30.6029 39.7871 30.5253 39.6763C30.0181 38.9444 30.0752 37.8801 30.6573 37.1797C31.8201 36.3862 33.4167 35.8322 35.4037 35.5353C35.6593 35.497 35.9259 35.4779 36.1979 35.4779C38.8594 35.4779 41.8813 37.2932 45.0773 39.2153C47.5009 40.6722 49.9788 42.1482 52.5043 42.9896H26.2726V70.3674C25.5505 67.3413 23.7593 64.3947 21.9968 61.5287C20.0397 58.3413 18.1915 55.3276 18.1534 52.6531C18.1493 52.3782 18.1643 52.1087 18.1983 51.8528C18.4649 49.8487 18.9925 48.2345 19.7637 47.0525C20.4505 46.4588 21.5085 46.3863 22.2429 46.8843C22.3531 46.9622 22.4129 47.125 22.4157 47.3726C22.4225 47.8966 22.1763 48.5683 22.043 48.8514C21.9587 49.0361 21.9696 49.255 22.0811 49.4328C22.194 49.6093 22.3857 49.7133 22.5938 49.7106C24.7413 49.6791 25.3016 48.411 25.4444 47.8679C25.5015 47.649 25.5287 47.415 25.5246 47.1729C25.5083 46.0334 24.8337 44.8528 23.8858 44.2974C23.0644 43.8186 21.9655 43.8323 20.9469 44.3329C20.1404 44.7324 19.4264 45.3945 18.8416 46.2755C18.8021 46.3275 18.7722 46.3713 18.7722 46.3795C17.9018 47.7215 17.2925 49.5573 17.011 51.6887C16.9689 52.0033 16.9498 52.333 16.9539 52.6736C16.9974 55.6805 18.93 58.8296 20.9781 62.1635C21.8254 63.5465 22.6945 64.961 23.4343 66.381C21.7601 65.0595 19.3339 63.857 16.6642 64.8311C14.5453 65.6026 13.2357 67.2907 13.0684 69.4631C12.8984 71.6163 13.9116 73.7709 15.4484 74.6205C17.0341 75.5001 18.9694 75.4932 20.3784 74.6013C21.533 73.8722 22.1573 72.6752 22.1355 71.2251L22.1287 71.0404C22.0308 69.1936 20.9496 68.013 19.304 67.9597C17.7944 67.9104 16.4575 68.8133 16.3256 69.9706C16.1841 71.2798 16.7757 71.8366 17.1117 72.0568C17.6557 72.4057 18.3955 72.4084 18.9545 72.0678C19.4903 71.7436 19.7569 71.0541 19.5855 70.4467C19.4264 69.8817 18.9558 69.5219 18.3846 69.5301C18.2051 69.5329 18.065 69.5301 17.9589 69.5274C18.3085 69.2894 18.8049 69.1498 19.2659 69.1621C19.8521 69.1813 20.8435 69.459 20.9319 71.1061L20.936 71.2483C20.9509 72.2566 20.5266 73.0842 19.7433 73.5808C18.7097 74.2319 17.215 74.2278 16.0237 73.563C14.9193 72.957 14.1278 71.2032 14.2584 69.5534C14.3373 68.5671 14.8024 66.7887 17.0681 65.9624C20.8666 64.578 24.2449 68.7353 24.7589 69.4084C25.3669 71.2005 25.5464 72.786 25.3165 74.2839C24.1565 81.8531 18.3465 84.5918 18.2962 84.6151C18.0745 84.7108 17.9358 84.927 17.9399 85.2252C17.9399 85.2279 17.9399 85.2307 17.9399 85.2334C17.9453 85.2881 17.9848 85.3264 18.0038 85.3743C17.9861 85.4236 17.9494 85.4605 17.944 85.5152C17.944 85.5179 17.944 85.5207 17.944 85.5248C17.9481 85.8244 18.0936 86.0364 18.318 86.1253C18.371 86.1459 24.2557 88.7122 25.6334 96.2458C25.9081 97.7355 25.7735 99.3306 25.2173 101.138C24.7222 101.822 21.465 106.078 17.6285 104.805C15.3382 104.046 14.8228 102.281 14.7153 101.299C14.5372 99.6535 15.2784 97.8778 16.3637 97.239C17.5346 96.5413 19.0293 96.4893 20.0805 97.1131C20.8789 97.5878 21.3263 98.4004 21.3413 99.4086L21.3399 99.5509C21.2991 101.199 20.3172 101.507 19.731 101.543C19.27 101.567 18.7709 101.446 18.4145 101.214C18.5206 101.208 18.6607 101.202 18.8402 101.199C19.4114 101.192 19.8697 100.818 20.0139 100.249C20.1703 99.6371 19.8806 98.9585 19.3366 98.648C18.7681 98.3238 18.0269 98.3471 17.4952 98.7109C17.1647 98.9421 16.5894 99.5153 16.7703 100.82C16.9376 101.974 18.2989 102.835 19.8045 102.745C21.4473 102.644 22.4959 101.429 22.5394 99.5837L22.5408 99.3977C22.519 97.9476 21.8608 96.7684 20.6871 96.0707C19.2523 95.2239 17.317 95.2745 15.7585 96.1993C14.2461 97.0912 13.2955 99.2759 13.5267 101.421C13.7552 103.589 15.1138 105.238 17.2531 105.949C19.95 106.842 22.3409 105.57 23.9756 104.202C23.2765 105.643 22.4497 107.083 21.6418 108.487C19.6916 111.878 17.8501 115.085 17.895 118.094C17.8991 118.431 17.9277 118.762 17.9807 119.075C18.3234 121.195 18.9857 123.015 19.8942 124.331C19.8942 124.339 19.9255 124.384 19.9663 124.431C20.5783 125.297 21.3113 125.938 22.1287 126.313C23.1596 126.782 24.2585 126.765 25.0677 126.261C25.5831 125.94 25.9938 125.423 26.2685 124.836V128.386H29.8589C29.0797 128.637 28.367 129.149 27.9685 129.815C27.4803 130.636 27.4776 131.74 27.9604 132.771C28.3453 133.588 28.994 134.316 29.8603 134.918C29.9106 134.957 29.9555 134.988 29.9637 134.989C31.2842 135.884 33.1012 136.524 35.2146 136.838C35.5261 136.886 35.8538 136.911 36.1925 136.911C39.1831 136.911 42.341 135.012 45.6853 133.001C47.0711 132.169 48.4909 131.317 49.9121 130.592C48.5753 132.257 47.3445 134.68 48.272 137.379C49.0091 139.521 50.6683 140.864 52.8253 141.061C54.9632 141.264 57.1201 140.276 57.9851 138.743C58.8813 137.161 58.9031 135.216 58.0395 133.785C57.3309 132.614 56.1491 131.968 54.7075 131.968L54.5239 131.972C52.6879 132.044 51.4979 133.115 51.4217 134.769C51.3524 136.286 52.2282 137.644 53.3788 137.793C54.6776 137.956 55.2393 137.368 55.4623 137.033C55.8173 136.491 55.8309 135.748 55.499 135.18C55.1835 134.637 54.5049 134.357 53.8983 134.522C53.3339 134.674 52.9694 135.142 52.9694 135.717C52.9694 135.897 52.9653 136.037 52.9599 136.145C52.7287 135.789 52.5968 135.289 52.6158 134.825C52.6444 134.235 52.9341 133.242 54.5729 133.178L54.7143 133.174C55.7153 133.174 56.5326 133.613 57.0141 134.408C57.6478 135.457 57.6206 136.96 56.9433 138.148C56.3232 139.25 54.5688 140.019 52.9313 139.864C51.9535 139.773 50.1909 139.278 49.4021 136.986C48.0816 133.146 52.2649 129.81 52.9395 129.302C54.7293 128.717 56.3109 128.558 57.7961 128.812C65.3033 130.09 67.9389 135.971 67.9634 136.023C68.0559 136.246 68.2681 136.391 68.5645 136.391C68.5673 136.391 68.57 136.391 68.5727 136.391C68.6271 136.384 68.6638 136.347 68.7128 136.328C68.7631 136.347 68.7998 136.384 68.8529 136.391C68.8556 136.391 68.8583 136.391 68.8624 136.391C69.1602 136.391 69.3724 136.247 69.4649 136.023C69.488 135.971 72.125 130.089 79.6322 128.812C81.1187 128.558 82.7004 128.718 84.4888 129.302C85.1633 129.81 89.3453 133.148 88.0248 136.986C87.2387 139.279 85.4761 139.773 84.4969 139.864C82.8581 140.019 81.1051 139.25 80.4849 138.148C79.809 136.96 79.7805 135.455 80.4142 134.408C80.8957 133.613 81.713 133.174 82.7126 133.174L82.8541 133.178C84.4929 133.242 84.7839 134.235 84.8111 134.825C84.8301 135.289 84.6982 135.789 84.4657 136.145C84.4589 136.037 84.4561 135.896 84.4561 135.717C84.4561 135.142 84.0917 134.674 83.5273 134.522C82.9221 134.358 82.2421 134.637 81.9265 135.18C81.5947 135.748 81.6083 136.492 81.9619 137.033C82.1863 137.368 82.748 137.956 84.0468 137.793C85.196 137.644 86.0718 136.286 86.0025 134.769C85.9263 133.115 84.7363 132.044 82.9003 131.972L82.7167 131.968C81.2751 131.968 80.0933 132.614 79.3847 133.785C78.5211 135.216 78.5429 137.161 79.4391 138.743C80.3054 140.276 82.4624 141.265 84.6003 141.061C86.7573 140.863 88.4151 139.521 89.1522 137.379C90.0825 134.68 88.8503 132.257 87.5134 130.592C88.936 131.316 90.3558 132.168 91.7389 133.001C95.0832 135.014 98.2425 136.911 101.233 136.911C101.569 136.911 101.898 136.886 102.211 136.838C104.324 136.525 106.143 135.885 107.462 134.989C107.47 134.988 107.514 134.959 107.564 134.918C108.433 134.316 109.079 133.587 109.465 132.771C109.947 131.74 109.945 130.635 109.456 129.815C109.057 129.149 108.347 128.637 107.567 128.386H111.156V100.478C111.852 103.432 113.538 106.331 115.192 109.156C117.08 112.385 118.863 115.439 118.844 118.115C118.842 118.388 118.822 118.658 118.781 118.915C118.471 120.912 117.909 122.514 117.111 123.677C116.412 124.257 115.353 124.306 114.628 123.792C114.52 123.711 114.466 123.547 114.467 123.301C114.471 122.777 114.732 122.111 114.871 121.832C114.96 121.65 114.954 121.429 114.844 121.249C114.737 121.07 114.546 120.963 114.338 120.961C112.192 120.945 111.603 122.201 111.449 122.741C111.388 122.959 111.357 123.191 111.353 123.435C111.345 124.573 111.995 125.77 112.929 126.345C113.741 126.84 114.839 126.852 115.868 126.373C116.683 125.992 117.41 125.345 118.015 124.476C118.056 124.427 118.088 124.383 118.088 124.373C118.987 123.05 119.637 121.23 119.963 119.104C120.013 118.79 120.039 118.461 120.042 118.12C120.065 115.113 118.2 111.922 116.223 108.544C115.407 107.145 114.568 105.711 113.859 104.275C115.505 105.632 117.904 106.886 120.595 105.972C122.729 105.247 124.077 103.588 124.291 101.42C124.519 99.2759 123.551 97.0981 122.032 96.2157ZM26.2726 122.094C25.9231 121.528 25.1873 120.871 23.6247 120.894C23.4166 120.896 23.2276 121.004 23.1201 121.186C23.0127 121.366 23.0073 121.588 23.0984 121.767C23.2398 122.046 23.505 122.708 23.5132 123.232C23.5159 123.481 23.4629 123.647 23.3541 123.728C22.6346 124.249 21.5738 124.205 20.8707 123.63C20.0669 122.47 19.4917 120.875 19.1666 118.881C19.1245 118.624 19.1027 118.355 19.0986 118.082C19.0605 115.405 20.8204 112.338 22.6849 109.095C24.064 106.7 25.4621 104.249 26.2726 101.763V122.094ZM26.2726 93.8696C24.7045 89.0296 21.3793 86.5139 19.7895 85.5535L19.7854 85.1486C21.4569 84.0679 25.0432 81.1157 26.274 75.5274V93.8696H26.2726ZM68.5197 36.6516H68.9222C69.8892 38.2166 72.3957 41.4656 77.123 42.995H60.3175C65.0462 41.4642 67.5513 38.2166 68.5197 36.6516ZM45.076 131.971C41.8786 133.893 38.8581 135.709 36.1965 135.709C35.9232 135.709 35.6566 135.688 35.4023 135.651C33.4153 135.353 31.8187 134.799 30.6559 134.007C30.0752 133.306 30.0167 132.242 30.524 131.51C30.6015 131.399 30.7647 131.343 31.0109 131.343C31.5317 131.343 32.1954 131.6 32.4742 131.739C32.6551 131.826 32.8741 131.819 33.0522 131.71C33.229 131.599 33.3351 131.408 33.3351 131.198C33.3351 129.32 32.3899 128.637 31.7901 128.39H51.9304C49.6007 129.254 47.3145 130.625 45.076 131.971ZM68.9236 134.54H68.521C67.5881 133.031 65.2081 129.982 60.8153 128.39H76.628C72.2338 129.982 69.8538 133.031 68.9236 134.54ZM106.789 134.007C105.625 134.799 104.029 135.353 102.042 135.651C101.787 135.688 101.519 135.709 101.248 135.709C98.5865 135.709 95.5633 133.893 92.3686 131.971C90.1301 130.625 87.8425 129.254 85.5156 128.39H105.656C105.056 128.637 104.109 129.32 104.109 131.198C104.109 131.408 104.214 131.599 104.392 131.71C104.571 131.819 104.789 131.827 104.97 131.739C105.251 131.6 105.913 131.343 106.434 131.343C106.681 131.343 106.843 131.399 106.921 131.51C107.427 132.242 107.369 133.308 106.789 134.007ZM109.764 126.978H27.6761V44.4054H109.764V126.978ZM111.168 74.7367C112.229 80.9119 116.16 84.0679 117.93 85.191L117.927 85.5959C116.204 86.6561 112.464 89.5987 111.168 95.3306V74.7367Z" fill="#FF9E18"/>
<path d="M86.25 74.375H51.75C50.9877 74.3742 50.2569 74.0711 49.7179 73.5321C49.1789 72.9931 48.8758 72.2623 48.875 71.5V65.75C48.8758 64.9877 49.1789 64.2569 49.7179 63.7179C50.2569 63.1789 50.9877 62.8758 51.75 62.875H86.25C87.0123 62.8758 87.7431 63.1789 88.2821 63.7179C88.8211 64.2569 89.1242 64.9877 89.125 65.75V71.5C89.1242 72.2623 88.8211 72.9931 88.2821 73.5321C87.7431 74.0711 87.0123 74.3742 86.25 74.375ZM51.75 65.75V71.5H86.25V65.75H51.75Z" fill="#FF9E18"/>
<path d="M86.25 103.125H51.75C50.9877 103.124 50.2569 102.821 49.7179 102.282C49.1789 101.743 48.8758 101.012 48.875 100.25V94.5C48.8758 93.7377 49.1789 93.0069 49.7179 92.4679C50.2569 91.9289 50.9877 91.6258 51.75 91.625H86.25C87.0123 91.6258 87.7431 91.9289 88.2821 92.4679C88.8211 93.0069 89.1242 93.7377 89.125 94.5V100.25C89.1242 101.012 88.8211 101.743 88.2821 102.282C87.7431 102.821 87.0123 103.124 86.25 103.125ZM51.75 94.5V100.25H86.25V94.5H51.75Z" fill="#FF9E18"/>
<path d="M86.25 88.75H51.75C50.9877 88.7492 50.2569 88.4461 49.7179 87.9071C49.1789 87.3681 48.8758 86.6373 48.875 85.875V80.125C48.8758 79.3627 49.1789 78.6319 49.7179 78.0929C50.2569 77.5539 50.9877 77.2508 51.75 77.25H86.25C87.0123 77.2508 87.7431 77.5539 88.2821 78.0929C88.8211 78.6319 89.1242 79.3627 89.125 80.125V85.875C89.1242 86.6373 88.8211 87.3681 88.2821 87.9071C87.7431 88.4461 87.0123 88.7492 86.25 88.75ZM51.75 80.125V85.875H86.25V80.125H51.75Z" fill="#FF9E18"/>
</svg>
